<svg width="60" height="54" viewBox="0 0 60 54" fill="none" xmlns="http://www.w3.org/2000/svg">
<g filter="url(#filter0_d_563_4)">
<path d="M5.51007 44.9776C5.68618 45.0235 5.87329 44.9982 6.03082 44.907C6.18836 44.8159 6.30364 44.6664 6.35167 44.4908C7.76808 39.2061 13.5245 37.8364 16.9652 37.0168C17.8274 36.8119 18.5081 36.6497 18.9509 36.4585C22.8701 34.7575 24.1476 32.0209 24.5299 30.0241C24.5527 29.9053 24.5436 29.7827 24.5038 29.6685C24.464 29.5543 24.3947 29.4526 24.303 29.3737C22.2623 27.6121 20.5406 24.9677 19.4542 21.9258C19.4236 21.8386 19.3753 21.7586 19.3126 21.6907C17.8755 20.1285 17.0504 18.4769 17.0504 17.1609C17.0504 16.3922 17.3406 15.8765 17.9938 15.4873C18.0916 15.4288 18.1734 15.3469 18.2317 15.249C18.2901 15.1511 18.3231 15.0401 18.3279 14.9263C18.6319 7.92118 23.6209 2.40679 29.7404 2.37104L29.8875 2.38066C36.0373 2.46592 40.9947 8.09858 41.1721 15.2027C41.1746 15.2998 41.1977 15.3952 41.2399 15.4827C41.2821 15.5702 41.3424 15.6477 41.4169 15.7101C41.8473 16.0745 42.0481 16.5366 42.0481 17.1636C42.0481 18.2651 41.4609 19.6197 40.3965 20.9756C40.3458 21.0408 40.3067 21.1143 40.281 21.1929C39.1809 24.6803 37.2062 27.7593 34.8656 29.6432C34.7687 29.7215 34.6947 29.8246 34.6516 29.9416C34.6085 30.0585 34.5979 30.1849 34.6209 30.3074C35.0031 32.3028 36.2807 35.038 40.1999 36.7418C40.6633 36.9426 41.3825 37.0993 42.2943 37.296C45.7005 38.0331 51.4006 39.2694 52.7991 44.4908C52.8226 44.5781 52.863 44.6598 52.9181 44.7314C52.9731 44.803 53.0418 44.8631 53.1201 44.9081C53.1983 44.9532 53.2847 44.9824 53.3743 44.9941C53.4639 45.0058 53.5548 44.9997 53.6421 44.9763C53.7293 44.9528 53.811 44.9124 53.8826 44.8573C53.9542 44.8022 54.0143 44.7336 54.0594 44.6553C54.1045 44.577 54.1337 44.4907 54.1454 44.4011C54.157 44.3115 54.151 44.2205 54.1275 44.1333C52.5117 38.1005 46.0539 36.7019 42.5858 35.9511C41.7813 35.7764 41.0869 35.6266 40.7486 35.478C38.1908 34.3669 36.6148 32.6741 36.0579 30.4381C38.4328 28.3987 40.4199 25.2523 41.5558 21.7237C42.7618 20.156 43.4246 18.5416 43.4246 17.1623C43.4246 16.2423 43.1276 15.4749 42.539 14.8754C42.2117 7.16897 36.7125 1.10039 29.8875 1.00275L29.6826 1C22.9815 1.03575 17.4588 6.94482 16.9762 14.5178C16.1153 15.1504 15.678 16.0374 15.678 17.1636C15.678 18.7905 16.598 20.7363 18.2083 22.5213C19.3208 25.5783 21.0453 28.2639 23.0984 30.1438C22.5442 32.388 20.9669 34.0864 18.4036 35.1989C18.0722 35.3433 17.4121 35.5014 16.6475 35.6829C13.1532 36.5135 6.65145 38.0606 5.02326 44.136C4.97624 44.3122 5.00111 44.4998 5.0924 44.6576C5.18369 44.8155 5.33393 44.9306 5.51007 44.9776V44.9776Z" fill="black"/>
<path d="M5.51007 44.9776C5.68618 45.0235 5.87329 44.9982 6.03082 44.907C6.18836 44.8159 6.30364 44.6664 6.35167 44.4908C7.76808 39.2061 13.5245 37.8364 16.9652 37.0168C17.8274 36.8119 18.5081 36.6497 18.9509 36.4585C22.8701 34.7575 24.1476 32.0209 24.5299 30.0241C24.5527 29.9053 24.5436 29.7827 24.5038 29.6685C24.464 29.5543 24.3947 29.4526 24.303 29.3737C22.2623 27.6121 20.5406 24.9677 19.4542 21.9258C19.4236 21.8386 19.3753 21.7586 19.3126 21.6907C17.8755 20.1285 17.0504 18.4769 17.0504 17.1609C17.0504 16.3922 17.3406 15.8765 17.9938 15.4873C18.0916 15.4288 18.1734 15.3469 18.2317 15.249C18.2901 15.1511 18.3231 15.0401 18.3279 14.9263C18.6319 7.92118 23.6209 2.40679 29.7404 2.37104L29.8875 2.38066C36.0373 2.46592 40.9947 8.09858 41.1721 15.2027C41.1746 15.2998 41.1977 15.3952 41.2399 15.4827C41.2821 15.5702 41.3424 15.6477 41.4169 15.7101C41.8473 16.0745 42.0481 16.5366 42.0481 17.1636C42.0481 18.2651 41.4609 19.6197 40.3965 20.9756C40.3458 21.0408 40.3067 21.1143 40.281 21.1929C39.1809 24.6803 37.2062 27.7593 34.8656 29.6432C34.7687 29.7215 34.6947 29.8246 34.6516 29.9416C34.6085 30.0585 34.5979 30.1849 34.6209 30.3074C35.0031 32.3028 36.2807 35.038 40.1999 36.7418C40.6633 36.9426 41.3825 37.0993 42.2943 37.296C45.7005 38.0331 51.4006 39.2694 52.7991 44.4908C52.8226 44.5781 52.863 44.6598 52.9181 44.7314C52.9731 44.803 53.0418 44.8631 53.1201 44.9081C53.1983 44.9532 53.2847 44.9824 53.3743 44.9941C53.4639 45.0058 53.5548 44.9997 53.6421 44.9763C53.7293 44.9528 53.811 44.9124 53.8826 44.8573C53.9542 44.8022 54.0143 44.7336 54.0594 44.6553C54.1045 44.577 54.1337 44.4907 54.1454 44.4011C54.157 44.3115 54.151 44.2205 54.1275 44.1333C52.5117 38.1005 46.0539 36.7019 42.5858 35.9511C41.7813 35.7764 41.0869 35.6266 40.7486 35.478C38.1908 34.3669 36.6148 32.6741 36.0579 30.4381C38.4328 28.3987 40.4199 25.2523 41.5558 21.7237C42.7618 20.156 43.4246 18.5416 43.4246 17.1623C43.4246 16.2423 43.1276 15.4749 42.539 14.8754C42.2117 7.16897 36.7125 1.10039 29.8875 1.00275L29.6826 1C22.9815 1.03575 17.4588 6.94482 16.9762 14.5178C16.1153 15.1504 15.678 16.0374 15.678 17.1636C15.678 18.7905 16.598 20.7363 18.2083 22.5213C19.3208 25.5783 21.0453 28.2639 23.0984 30.1438C22.5442 32.388 20.9669 34.0864 18.4036 35.1989C18.0722 35.3433 17.4121 35.5014 16.6475 35.6829C13.1532 36.5135 6.65145 38.0606 5.02326 44.136C4.97624 44.3122 5.00111 44.4998 5.0924 44.6576C5.18369 44.8155 5.33393 44.9306 5.51007 44.9776V44.9776Z" stroke="black" stroke-width="2"/>
</g>
<defs>
<filter id="filter0_d_563_4" x="0" y="0" width="59.1511" height="54" filterUnits="userSpaceOnUse" color-interpolation-filters="sRGB">
<feFlood flood-opacity="0" result="BackgroundImageFix"/>
<feColorMatrix in="SourceAlpha" type="matrix" values="0 0 0 0 0 0 0 0 0 0 0 0 0 0 0 0 0 0 127 0" result="hardAlpha"/>
<feOffset dy="4"/>
<feGaussianBlur stdDeviation="2"/>
<feComposite in2="hardAlpha" operator="out"/>
<feColorMatrix type="matrix" values="0 0 0 0 0 0 0 0 0 0 0 0 0 0 0 0 0 0 0.16 0"/>
<feBlend mode="normal" in2="BackgroundImageFix" result="effect1_dropShadow_563_4"/>
<feBlend mode="normal" in="SourceGraphic" in2="effect1_dropShadow_563_4" result="shape"/>
</filter>
</defs>
</svg>
