<svg width="62" height="62" viewBox="0 0 62 62" fill="none" xmlns="http://www.w3.org/2000/svg">
<g clip-path="url(#clip0_69_204)">
<g filter="url(#filter0_d_69_204)">
<path d="M56.8334 31.0001C56.8334 29.5733 55.6769 28.4167 54.2501 28.4167C52.8233 28.4167 51.6667 29.5733 51.6667 31.0001H56.8334ZM31.0001 10.3334C32.4269 10.3334 33.5834 9.17682 33.5834 7.75008C33.5834 6.32335 32.4269 5.16675 31.0001 5.16675V10.3334ZM50.3751 51.6667H11.6251V56.8334H50.3751V51.6667ZM10.3334 50.3751V11.6251H5.16675V50.3751H10.3334ZM51.6667 31.0001V50.3751H56.8334V31.0001H51.6667ZM11.6251 10.3334H31.0001V5.16675H11.6251V10.3334ZM11.6251 51.6667C10.9117 51.6667 10.3334 51.0885 10.3334 50.3751H5.16675C5.16675 53.9419 8.05823 56.8334 11.6251 56.8334V51.6667ZM50.3751 56.8334C53.9419 56.8334 56.8334 53.9419 56.8334 50.3751H51.6667C51.6667 51.0885 51.0885 51.6667 50.3751 51.6667V56.8334ZM10.3334 11.6251C10.3334 10.9117 10.9117 10.3334 11.6251 10.3334V5.16675C8.05825 5.16675 5.16675 8.05823 5.16675 11.6251H10.3334Z" fill="black"/>
<path d="M7.75 45.2084L21.5619 32.5474C22.5252 31.6643 23.9965 31.6398 24.9887 32.4904L41.3333 46.5" stroke="black" stroke-width="4" stroke-linecap="round" stroke-linejoin="round"/>
<path d="M36.1667 40.0417L42.3325 33.876C43.2415 32.967 44.6806 32.8647 45.7092 33.6361L54.2501 40.0417" stroke="black" stroke-width="4" stroke-linecap="round" stroke-linejoin="round"/>
<path d="M47.7917 23.25V7.75" stroke="black" stroke-width="4" stroke-linecap="round" stroke-linejoin="round"/>
<path d="M41.3335 14.2083L47.7918 7.75L54.2502 14.2083" stroke="black" stroke-width="4" stroke-linecap="round" stroke-linejoin="round"/>
</g>
</g>
<defs>
<filter id="filter0_d_69_204" x="1.16675" y="5.16675" width="59.6667" height="59.6667" filterUnits="userSpaceOnUse" color-interpolation-filters="sRGB">
<feFlood flood-opacity="0" result="BackgroundImageFix"/>
<feColorMatrix in="SourceAlpha" type="matrix" values="0 0 0 0 0 0 0 0 0 0 0 0 0 0 0 0 0 0 127 0" result="hardAlpha"/>
<feOffset dy="4"/>
<feGaussianBlur stdDeviation="2"/>
<feComposite in2="hardAlpha" operator="out"/>
<feColorMatrix type="matrix" values="0 0 0 0 0 0 0 0 0 0 0 0 0 0 0 0 0 0 0.25 0"/>
<feBlend mode="normal" in2="BackgroundImageFix" result="effect1_dropShadow_69_204"/>
<feBlend mode="normal" in="SourceGraphic" in2="effect1_dropShadow_69_204" result="shape"/>
</filter>
<clipPath id="clip0_69_204">
<rect width="62" height="62" fill="white"/>
</clipPath>
</defs>
</svg>
