<svg width="38" height="38" viewBox="0 0 38 38" fill="none" xmlns="http://www.w3.org/2000/svg">
<path d="M19 14.0535C16.2762 14.0535 14.0533 16.2764 14.0533 19.0002C14.0533 21.7241 16.2762 23.9469 19 23.9469C21.7238 23.9469 23.9467 21.7241 23.9467 19.0002C23.9467 16.2764 21.7238 14.0535 19 14.0535ZM33.8363 19.0002C33.8363 16.9518 33.8549 14.9219 33.7398 12.8772C33.6248 10.5022 33.083 8.39436 31.3463 6.65765C29.6058 4.91722 27.5017 4.37913 25.1267 4.26409C23.0783 4.14905 21.0484 4.16761 19.0037 4.16761C16.9553 4.16761 14.9254 4.14905 12.8807 4.26409C10.5057 4.37913 8.39784 4.92093 6.66113 6.65765C4.9207 8.39808 4.38261 10.5022 4.26757 12.8772C4.15253 14.9256 4.17109 16.9555 4.17109 19.0002C4.17109 21.0449 4.15253 23.0785 4.26757 25.1233C4.38261 27.4983 4.92441 29.6061 6.66113 31.3428C8.40155 33.0832 10.5057 33.6213 12.8807 33.7364C14.9291 33.8514 16.959 33.8328 19.0037 33.8328C21.0521 33.8328 23.082 33.8514 25.1267 33.7364C27.5017 33.6213 29.6096 33.0795 31.3463 31.3428C33.0867 29.6024 33.6248 27.4983 33.7398 25.1233C33.8586 23.0785 33.8363 21.0487 33.8363 19.0002ZM19 26.6114C14.7881 26.6114 11.3889 23.2121 11.3889 19.0002C11.3889 14.7883 14.7881 11.3891 19 11.3891C23.2119 11.3891 26.6111 14.7883 26.6111 19.0002C26.6111 23.2121 23.2119 26.6114 19 26.6114ZM26.9228 12.8549C25.9394 12.8549 25.1453 12.0608 25.1453 11.0774C25.1453 10.094 25.9394 9.29983 26.9228 9.29983C27.9062 9.29983 28.7004 10.094 28.7004 11.0774C28.7007 11.3109 28.6549 11.5422 28.5657 11.758C28.4764 11.9737 28.3455 12.1698 28.1804 12.3349C28.0153 12.5001 27.8192 12.631 27.6034 12.7202C27.3876 12.8094 27.1564 12.8552 26.9228 12.8549Z" fill="black"/>
</svg>
