<svg width="31" height="31" viewBox="0 0 31 31" fill="none" xmlns="http://www.w3.org/2000/svg">
<path fill-rule="evenodd" clip-rule="evenodd" d="M1.29169 3.66559C1.29169 3.03594 1.54181 2.43209 1.98704 1.98686C2.43227 1.54163 3.03612 1.29151 3.66577 1.29151H27.3317C27.6437 1.291 27.9528 1.35204 28.2412 1.47113C28.5296 1.59023 28.7917 1.76504 29.0125 1.98557C29.2332 2.20609 29.4083 2.46799 29.5277 2.75627C29.6471 3.04455 29.7085 3.35356 29.7084 3.66559V27.3315C29.7087 27.6436 29.6475 27.9527 29.5283 28.2411C29.409 28.5295 29.2341 28.7916 29.0135 29.0124C28.7928 29.2331 28.5308 29.4082 28.2425 29.5276C27.9541 29.647 27.6451 29.7083 27.333 29.7082H3.66577C3.35389 29.7082 3.04507 29.6467 2.75695 29.5273C2.46883 29.4079 2.20705 29.233 1.98658 29.0124C1.76611 28.7918 1.59127 28.5299 1.47203 28.2417C1.3528 27.9535 1.29152 27.6447 1.29169 27.3328V3.66559ZM12.5395 12.126H16.3874V14.0583C16.9428 12.9475 18.3636 11.9478 20.4988 11.9478C24.5921 11.9478 25.5621 14.1604 25.5621 18.2201V25.7402H21.4197V19.1449C21.4197 16.8328 20.8643 15.5283 19.4538 15.5283C17.4969 15.5283 16.6832 16.9349 16.6832 19.1449V25.7402H12.5395V12.126ZM5.43535 25.5632H9.57902V11.9478H5.43535V25.5619V25.5632ZM10.1719 7.50701C10.1797 7.86179 10.1166 8.21456 9.9862 8.54462C9.85583 8.87468 9.66085 9.17537 9.41269 9.42905C9.16454 9.68273 8.86821 9.88428 8.54111 10.0219C8.214 10.1595 7.8627 10.2304 7.50783 10.2304C7.15296 10.2304 6.80166 10.1595 6.47456 10.0219C6.14745 9.88428 5.85113 9.68273 5.60297 9.42905C5.35482 9.17537 5.15983 8.87468 5.02946 8.54462C4.89909 8.21456 4.83596 7.86179 4.84377 7.50701C4.85911 6.81061 5.14652 6.1479 5.64446 5.66081C6.14239 5.17372 6.81127 4.90096 7.50783 4.90096C8.2044 4.90096 8.87327 5.17372 9.37121 5.66081C9.86915 6.1479 10.1566 6.81061 10.1719 7.50701Z" fill="black"/>
</svg>
