<svg width="50" height="58" viewBox="0 0 50 58" fill="none" xmlns="http://www.w3.org/2000/svg">
<g clip-path="url(#clip0_8_85)">
<path d="M25.0343 14.6777L36.6712 21.6965L25.0343 28.3494L12.8715 21.6965L25.0343 14.6777Z" fill="#FF5050"/>
<path d="M12.8715 21.948L25.0343 28.5781L24.9657 42.1126L12.8715 35.7111V21.948Z" fill="#B9B9B9"/>
<path d="M25.0343 28.5781L36.8084 21.948L37.1514 35.7111L25.1943 42.3641L25.0343 28.5781Z" fill="#2B59FF"/>
<path d="M49.2205 13.8317L49.0376 13.7174L37.4235 7.06447L25.2607 0.0914495L25.1007 0L24.9635 0.0685871C24.7351 0.150179 24.5134 0.249554 24.3005 0.365798L13.6924 6.5615L0.569387 14.2433C0.0206901 14.4947 0.0435525 15.0663 0.0435525 15.4092V15.6607L0.0206901 35.1395L-0.00217223 42.364C-0.0250346 42.7984 0.157864 43.187 0.477937 43.3242L15.5671 51.8976L24.4834 56.973C24.6663 57.0873 24.8721 57.1559 25.055 57.1559C25.2114 57.1629 25.3653 57.1143 25.4894 57.0187L38.3837 49.5885L49.3577 43.2785C49.7692 43.0956 50.0207 42.684 49.9521 42.2954L49.9978 14.9291C50.0664 14.289 49.5406 13.9918 49.2205 13.8317ZM25.0093 15.5693L35.6403 21.7421L25.0321 27.8464L21.4199 25.8116L14.2868 21.765L25.0093 15.5693ZM37.0806 20.8962L25.558 14.1975C25.4063 14.0859 25.224 14.0238 25.0357 14.0198C24.8475 14.0157 24.6626 14.0698 24.5063 14.1747L12.8465 20.9419L2.23834 14.9291L9.64575 10.6081L25.0321 1.62323L39.1839 9.73937L47.8259 14.7005L37.0806 20.8962ZM1.50674 16.1866L12.0692 22.1765L12.2749 35.3452C12.2521 35.7567 12.4578 36.1225 12.7779 36.2826L19.7966 40.3064L24.3005 42.8898V55.2126L1.46102 42.2268L1.50674 16.1866ZM13.5323 22.9995L24.3234 29.1038L24.3005 41.2208L13.7381 35.1623L13.5323 22.9995ZM25.7637 42.9127L30.2676 40.3064L37.2178 36.3283L37.2863 36.2826C37.4235 36.214 37.5836 36.0997 37.6979 35.9396L37.7665 35.8482V35.7339L37.7436 27.0005V22.1994L48.5346 15.9579V26.5889L48.5118 42.0896L34.0399 50.4115L25.7408 55.1898L25.7637 42.9127ZM25.7637 41.2437V29.1038L36.3947 22.9767V35.1395L25.7637 41.2437Z" fill="#D1D1D1"/>
<path d="M24.7142 3.04066C24.3941 3.08639 24.1198 3.29215 23.9826 3.5665C23.8454 3.88657 23.8683 4.22951 24.0283 4.45813C24.2112 4.73248 24.5084 4.89252 24.8514 4.89252C24.9127 4.88827 24.9738 4.88064 25.0343 4.86966C25.4229 4.82393 25.7201 4.54958 25.7887 4.20665C25.8362 4.05677 25.8422 3.89681 25.806 3.74381C25.7697 3.59081 25.6927 3.45051 25.583 3.33788C25.4758 3.21798 25.3396 3.12766 25.1875 3.07561C25.0353 3.02356 24.8723 3.01153 24.7142 3.04066ZM25.3315 7.04158C24.9885 6.85868 24.5999 6.88154 24.3255 7.06444C24.074 7.20162 23.914 7.47597 23.8683 7.77318C23.8454 8.09325 23.9826 8.3676 24.1655 8.52763C24.2537 8.61158 24.3578 8.67707 24.4716 8.72026C24.5855 8.76344 24.7068 8.78345 24.8285 8.77912C24.9704 8.77673 25.1104 8.74562 25.24 8.68767C25.6058 8.5505 25.8116 8.20756 25.8116 7.86463C25.8344 7.54455 25.6287 7.22448 25.3315 7.04158ZM25.3543 10.9739C25.0343 10.7681 24.6456 10.7681 24.3484 10.9282C24.074 11.0654 23.8911 11.3397 23.8683 11.6598C23.8454 11.9799 23.9826 12.3228 24.2341 12.4828C24.4056 12.6097 24.6153 12.6742 24.8285 12.6657C24.9704 12.6633 25.1104 12.6322 25.24 12.5743C25.3955 12.5121 25.5303 12.4075 25.629 12.2723C25.7277 12.1371 25.7864 11.9769 25.7984 11.8099C25.8103 11.6429 25.775 11.476 25.6964 11.3281C25.6179 11.1803 25.4994 11.0575 25.3543 10.9739ZM9.83079 36.6026C9.48786 36.6941 9.23637 36.9684 9.16778 37.3114C9.0992 37.6772 9.21351 38.0201 9.46499 38.2259C9.62347 38.3629 9.82713 38.4362 10.0366 38.4316C10.1058 38.432 10.1748 38.4243 10.2423 38.4088C10.5395 38.3402 10.791 38.1344 10.8825 37.8829C11.0425 37.5629 10.9968 37.1742 10.7224 36.877C10.6171 36.7489 10.4764 36.6546 10.3178 36.6058C10.1593 36.557 9.98994 36.5559 9.83079 36.6026ZM39.3689 38.4545C39.447 38.4505 39.524 38.4351 39.5976 38.4088C39.8948 38.3402 40.1463 38.1344 40.2149 37.9058C40.3749 37.5629 40.3063 37.1513 40.0548 36.8541C39.9396 36.7262 39.7897 36.6343 39.6234 36.5897C39.457 36.545 39.2813 36.5495 39.1175 36.6026C38.7974 36.6941 38.5459 36.9684 38.4773 37.3114C38.4087 37.6772 38.5459 38.0201 38.7974 38.2259C38.9346 38.3859 39.1403 38.4545 39.3689 38.4545ZM6.49289 38.5688C6.14995 38.6831 5.92133 39.0032 5.89847 39.369C5.85274 39.7576 6.03564 40.1234 6.33285 40.2835C6.46947 40.371 6.62786 40.4185 6.7901 40.4207C6.92463 40.4177 7.05704 40.3866 7.17876 40.3292C7.47597 40.192 7.68173 39.9177 7.70459 39.6662C7.77318 39.3233 7.63601 38.9575 7.36166 38.7288C7.24703 38.6223 7.10443 38.5507 6.95056 38.5224C6.79669 38.494 6.63793 38.5101 6.49289 38.5688ZM42.6154 40.3978C42.724 40.4022 42.8325 40.3867 42.9355 40.3521C43.2556 40.2378 43.4842 39.9634 43.507 39.6891C43.5985 39.3461 43.507 39.0032 43.2327 38.7517C43.1134 38.6374 42.964 38.5595 42.8021 38.5271C42.6401 38.4947 42.4722 38.5092 42.3182 38.5688C42.1639 38.6326 42.0284 38.7346 41.9244 38.8653C41.8205 38.996 41.7515 39.151 41.7241 39.3157C41.6966 39.4804 41.7116 39.6494 41.7675 39.8067C41.8235 39.964 41.9186 40.1045 42.0438 40.2149C42.2084 40.3384 42.4097 40.4028 42.6154 40.3978ZM3.97803 40.6035C3.70368 40.4435 3.36075 40.4435 3.10926 40.6035C2.81205 40.7636 2.62915 41.0608 2.62915 41.4266C2.62915 41.7924 2.81205 42.1125 3.10926 42.2496C3.23354 42.3243 3.37578 42.3638 3.52078 42.364C3.69804 42.3667 3.87244 42.3191 4.02375 42.2268C4.32096 42.021 4.481 41.6781 4.45814 41.3809C4.45814 41.0608 4.27524 40.7636 3.97803 40.5807V40.6035ZM45.336 42.1582C45.4875 42.2918 45.6828 42.365 45.8847 42.364C46.0024 42.364 46.119 42.3406 46.2277 42.2954C46.5477 42.1582 46.7764 41.8381 46.7992 41.5638C46.8678 41.198 46.7078 40.8322 46.3877 40.6264C46.0905 40.4207 45.7247 40.4207 45.4503 40.6035C45.3163 40.6858 45.2045 40.7997 45.1248 40.9352C45.0451 41.0707 44.9998 41.2238 44.9931 41.3809C44.9702 41.7009 45.1074 41.9982 45.336 42.1582Z" fill="#D1D1D1"/>
</g>
<defs>
<clipPath id="clip0_8_85">
<rect width="50" height="57.1559" fill="white"/>
</clipPath>
</defs>
</svg>
