<svg width="52" height="52" viewBox="0 0 52 52" fill="none" xmlns="http://www.w3.org/2000/svg">
<g clip-path="url(#clip0_30_2065)">
<g filter="url(#filter0_d_30_2065)">
<path d="M41.2317 13.0652L43.3334 15.1668L47.6667 4.3335L36.8334 8.66683L38.935 10.7685L34.9917 14.7118C23.5517 4.68016 7.15001 8.53683 6.43501 8.66683L4.33334 9.23017L5.41668 13.4335L7.12834 13.0002L21.9267 27.7768L15.0367 34.6668H10.8333L4.33334 41.1668L8.66668 43.3335L10.8333 47.6668L17.3333 41.1668V36.9635L24.2234 30.0735L39 44.8718L38.5884 46.5835L42.77 47.6668L43.3334 45.5652C43.4634 44.8502 47.32 28.4485 37.2884 17.0085L41.2317 13.0652ZM9.75001 12.5235C14.1917 11.9168 24.44 11.4402 31.915 17.7885L23.4433 26.2602L9.75001 12.5235ZM39.4767 42.2502L25.74 28.5568L34.2117 20.0852C40.56 27.5602 40.0834 37.8085 39.4767 42.2502Z" fill="black"/>
</g>
</g>
<defs>
<filter id="filter0_d_30_2065" x="-1.66666" y="2.3335" width="55.3333" height="55.3335" filterUnits="userSpaceOnUse" color-interpolation-filters="sRGB">
<feFlood flood-opacity="0" result="BackgroundImageFix"/>
<feColorMatrix in="SourceAlpha" type="matrix" values="0 0 0 0 0 0 0 0 0 0 0 0 0 0 0 0 0 0 127 0" result="hardAlpha"/>
<feOffset dy="4"/>
<feGaussianBlur stdDeviation="3"/>
<feComposite in2="hardAlpha" operator="out"/>
<feColorMatrix type="matrix" values="0 0 0 0 0 0 0 0 0 0 0 0 0 0 0 0 0 0 0.25 0"/>
<feBlend mode="normal" in2="BackgroundImageFix" result="effect1_dropShadow_30_2065"/>
<feBlend mode="normal" in="SourceGraphic" in2="effect1_dropShadow_30_2065" result="shape"/>
</filter>
<clipPath id="clip0_30_2065">
<rect width="52" height="52" fill="white"/>
</clipPath>
</defs>
</svg>
