<svg width="19" height="16" viewBox="0 0 19 16" fill="none" xmlns="http://www.w3.org/2000/svg">
<path fill-rule="evenodd" clip-rule="evenodd" d="M0 14.3438C0 14.12 0.088895 13.9054 0.247129 13.7471C0.405363 13.5889 0.619974 13.5 0.84375 13.5H17.7188C17.9425 13.5 18.1571 13.5889 18.3154 13.7471C18.4736 13.9054 18.5625 14.12 18.5625 14.3438C18.5625 14.5675 18.4736 14.7821 18.3154 14.9404C18.1571 15.0986 17.9425 15.1875 17.7188 15.1875H0.84375C0.619974 15.1875 0.405363 15.0986 0.247129 14.9404C0.088895 14.7821 0 14.5675 0 14.3438ZM0 7.59375C0 7.36997 0.088895 7.15536 0.247129 6.99713C0.405363 6.83889 0.619974 6.75 0.84375 6.75H17.7188C17.9425 6.75 18.1571 6.83889 18.3154 6.99713C18.4736 7.15536 18.5625 7.36997 18.5625 7.59375C18.5625 7.81753 18.4736 8.03214 18.3154 8.19037C18.1571 8.34861 17.9425 8.4375 17.7188 8.4375H0.84375C0.619974 8.4375 0.405363 8.34861 0.247129 8.19037C0.088895 8.03214 0 7.81753 0 7.59375ZM0 0.84375C0 0.619974 0.088895 0.405363 0.247129 0.247129C0.405363 0.088895 0.619974 0 0.84375 0H17.7188C17.9425 0 18.1571 0.088895 18.3154 0.247129C18.4736 0.405363 18.5625 0.619974 18.5625 0.84375C18.5625 1.06753 18.4736 1.28214 18.3154 1.44037C18.1571 1.59861 17.9425 1.6875 17.7188 1.6875H0.84375C0.619974 1.6875 0.405363 1.59861 0.247129 1.44037C0.088895 1.28214 0 1.06753 0 0.84375V0.84375Z" fill="#121212"/>
</svg>
