<svg width="67" height="67" viewBox="0 0 67 67" fill="none" xmlns="http://www.w3.org/2000/svg">
<path d="M36.283 51.3059L36.4295 51.1595L52.61 34.9789L52.6101 34.9788C53.2386 34.3508 53.9846 33.8528 54.8056 33.5131C55.6265 33.1734 56.5064 32.9987 57.3948 32.9991C58.2833 32.9994 59.163 33.1747 59.9837 33.515C60.8044 33.8553 61.55 34.354 62.178 34.9824C62.806 35.6109 63.3041 36.3569 63.6437 37.1779C63.9834 37.9988 64.1581 38.8787 64.1577 39.7671C64.1574 40.6556 63.9821 41.5353 63.6418 42.356C63.3015 43.1766 62.8029 43.9222 62.1745 44.5502L62.1744 44.5503M36.283 51.3059L61.821 44.1966L62.1744 44.5503M36.283 51.3059V51.3126M36.283 51.3059V51.3126M62.1744 44.5503L45.9941 60.7272L62.1744 44.5503ZM36.283 51.3126C35.3508 52.2918 34.6882 53.4975 34.3617 54.8119L36.283 51.3126ZM30.8871 57.4501H31.2771L31.372 57.0717L32.0822 54.241L32.0823 54.2406C32.1245 54.0718 32.1688 53.9079 32.2184 53.7497L32.4222 53.1001H31.7413H16.75C15.9942 53.1001 15.2693 52.7998 14.7348 52.2653C14.2003 51.7308 13.9 51.0059 13.9 50.2501V16.75C13.9 15.9942 14.2003 15.2693 14.7348 14.7348C15.2693 14.2003 15.9942 13.9 16.75 13.9H50.25C51.0059 13.9 51.7308 14.2003 52.2653 14.7348C52.7998 15.2693 53.1001 15.9942 53.1001 16.75V30.9273V31.6852L53.7968 31.3869C54.8128 30.9519 55.8897 30.7104 56.9735 30.6596L57.4501 30.6372V30.1601V16.75C57.4501 14.8405 56.6915 13.0091 55.3412 11.6589C53.991 10.3086 52.1596 9.55005 50.25 9.55005H16.75C14.8405 9.55005 13.0091 10.3086 11.6589 11.6589C10.3086 13.0091 9.55005 14.8405 9.55005 16.75V50.2501C9.55005 52.1596 10.3086 53.991 11.6589 55.3412C13.0091 56.6915 14.8405 57.4501 16.75 57.4501H30.8871ZM36.6591 47.4001H36.8662L37.0127 47.2536L40.3627 43.9036L41.2162 43.0501H40.0091H31.8251C31.2482 43.0501 30.695 43.2792 30.2871 43.6871C29.8792 44.095 29.65 44.6482 29.65 45.2251C29.65 45.8019 29.8792 46.3551 30.2871 46.763C30.695 47.1709 31.2482 47.4001 31.8251 47.4001H36.6591ZM42.345 62.7951C43.7261 62.4491 44.9874 61.7344 45.994 60.7273L34.3615 54.8129L33.1055 59.8302L33.1052 59.8312C32.9606 60.414 32.9691 61.0243 33.13 61.6028C33.2909 62.1814 33.5987 62.7085 34.0235 63.1329C34.4483 63.5573 34.9757 63.8646 35.5544 64.025C36.1331 64.1854 36.7434 64.1933 37.3261 64.0481L37.3263 64.0481L42.3446 62.7952L42.345 62.7951ZM24.7427 26.4177C25.3077 25.8528 25.625 25.0865 25.625 24.2875C25.625 23.4886 25.3077 22.7223 24.7427 22.1574C24.1778 21.5924 23.4115 21.2751 22.6125 21.2751C21.8136 21.2751 21.0473 21.5924 20.4824 22.1574C19.9174 22.7223 19.6 23.4886 19.6 24.2875C19.6 25.0865 19.9174 25.8528 20.4824 26.4177C21.0473 26.9827 21.8136 27.3001 22.6125 27.3001C23.4115 27.3001 24.1778 26.9827 24.7427 26.4177ZM22.6125 37.3501C23.4115 37.3501 24.1778 37.0327 24.7427 36.4677C25.3077 35.9028 25.625 35.1365 25.625 34.3376C25.625 33.5386 25.3077 32.7723 24.7427 32.2074C24.1778 31.6424 23.4115 31.3251 22.6125 31.3251C21.8136 31.3251 21.0473 31.6424 20.4824 32.2074C19.9174 32.7723 19.6 33.5386 19.6 34.3376C19.6 35.1365 19.9174 35.9028 20.4824 36.4677C21.0473 37.0327 21.8136 37.3501 22.6125 37.3501ZM22.6125 47.4001C23.4115 47.4001 24.1778 47.0827 24.7427 46.5177C25.3077 45.9528 25.625 45.1865 25.625 44.3876C25.625 43.5886 25.3077 42.8223 24.7427 42.2574C24.1778 41.6924 23.4115 41.3751 22.6125 41.3751C21.8136 41.3751 21.0473 41.6924 20.4824 42.2574C19.9174 42.8223 19.6 43.5886 19.6 44.3876C19.6 45.1865 19.9174 45.9528 20.4824 46.5177C21.0473 47.0827 21.8136 47.4001 22.6125 47.4001ZM31.8251 22.9501C31.2482 22.9501 30.695 23.1792 30.2871 23.5871C29.8792 23.995 29.65 24.5482 29.65 25.1251C29.65 25.7019 29.8792 26.2551 30.2871 26.663C30.695 27.0709 31.2482 27.3001 31.8251 27.3001H45.2251C45.8019 27.3001 46.3551 27.0709 46.763 26.663C47.1709 26.2551 47.4001 25.7019 47.4001 25.1251C47.4001 24.5482 47.1709 23.995 46.763 23.5871C46.3551 23.1792 45.8019 22.9501 45.2251 22.9501H31.8251ZM31.8251 33.0001C31.2482 33.0001 30.695 33.2292 30.2871 33.6371C29.8792 34.045 29.65 34.5982 29.65 35.1751C29.65 35.7519 29.8792 36.3051 30.2871 36.713C30.695 37.1209 31.2482 37.3501 31.8251 37.3501H45.2251C45.8019 37.3501 46.3551 37.1209 46.763 36.713C47.1709 36.3051 47.4001 35.7519 47.4001 35.1751C47.4001 34.5982 47.1709 34.045 46.763 33.6371C46.3551 33.2292 45.8019 33.0001 45.2251 33.0001H31.8251Z" fill="white" stroke="white"/>
</svg>
