<svg width="56" height="56" viewBox="0 0 56 56" fill="none" xmlns="http://www.w3.org/2000/svg">
<path d="M7.75005 1.05005C5.9731 1.05005 4.26893 1.75594 3.01243 3.01243C1.75594 4.26893 1.05005 5.9731 1.05005 7.75005V41.2501C1.05005 43.027 1.75594 44.7312 3.01243 45.9877C4.26893 47.2442 5.9731 47.9501 7.75005 47.9501H21.8871L22.5973 45.1193C22.6408 44.9451 22.6877 44.7709 22.7413 44.6001H7.75005C6.86157 44.6001 6.00949 44.2471 5.38124 43.6189C4.753 42.9906 4.40005 42.1385 4.40005 41.2501V7.75005C4.40005 6.86157 4.753 6.00949 5.38124 5.38124C6.00949 4.753 6.86157 4.40005 7.75005 4.40005H41.2501C42.1385 4.40005 42.9906 4.753 43.6189 5.38124C44.2471 6.00949 44.6001 6.86157 44.6001 7.75005V21.9273C45.6721 21.4683 46.8077 21.2137 47.9501 21.1601V7.75005C47.9501 5.9731 47.2442 4.26893 45.9877 3.01243C44.7312 1.75594 43.027 1.05005 41.2501 1.05005H7.75005ZM22.825 37.9001H27.6591L31.0091 34.5501H22.825C22.3808 34.5501 21.9548 34.7265 21.6406 35.0406C21.3265 35.3548 21.15 35.7808 21.15 36.2251C21.15 36.6693 21.3265 37.0953 21.6406 37.4095C21.9548 37.7236 22.3808 37.9001 22.825 37.9001ZM16.125 15.2876C16.125 15.9539 15.8603 16.593 15.3892 17.0642C14.918 17.5353 14.2789 17.8001 13.6125 17.8001C12.9462 17.8001 12.3071 17.5353 11.8359 17.0642C11.3648 16.593 11.1 15.9539 11.1 15.2876C11.1 14.6212 11.3648 13.9821 11.8359 13.5109C12.3071 13.0398 12.9462 12.7751 13.6125 12.7751C14.2789 12.7751 14.918 13.0398 15.3892 13.5109C15.8603 13.9821 16.125 14.6212 16.125 15.2876ZM13.6125 27.8501C14.2789 27.8501 14.918 27.5853 15.3892 27.1142C15.8603 26.643 16.125 26.0039 16.125 25.3376C16.125 24.6712 15.8603 24.0321 15.3892 23.5609C14.918 23.0898 14.2789 22.8251 13.6125 22.8251C12.9462 22.8251 12.3071 23.0898 11.8359 23.5609C11.3648 24.0321 11.1 24.6712 11.1 25.3376C11.1 26.0039 11.3648 26.643 11.8359 27.1142C12.3071 27.5853 12.9462 27.8501 13.6125 27.8501ZM13.6125 37.9001C14.2789 37.9001 14.918 37.6353 15.3892 37.1642C15.8603 36.693 16.125 36.0539 16.125 35.3876C16.125 34.7212 15.8603 34.0821 15.3892 33.6109C14.918 33.1398 14.2789 32.8751 13.6125 32.8751C12.9462 32.8751 12.3071 33.1398 11.8359 33.6109C11.3648 34.0821 11.1 34.7212 11.1 35.3876C11.1 36.0539 11.3648 36.693 11.8359 37.1642C12.3071 37.6353 12.9462 37.9001 13.6125 37.9001V37.9001ZM22.825 14.4501C22.3808 14.4501 21.9548 14.6265 21.6406 14.9406C21.3265 15.2548 21.15 15.6808 21.15 16.1251C21.15 16.5693 21.3265 16.9953 21.6406 17.3095C21.9548 17.6236 22.3808 17.8001 22.825 17.8001H36.2251C36.6693 17.8001 37.0953 17.6236 37.4095 17.3095C37.7236 16.9953 37.9001 16.5693 37.9001 16.1251C37.9001 15.6808 37.7236 15.2548 37.4095 14.9406C37.0953 14.6265 36.6693 14.4501 36.2251 14.4501H22.825ZM22.825 24.5001C22.3808 24.5001 21.9548 24.6765 21.6406 24.9906C21.3265 25.3048 21.15 25.7308 21.15 26.1751C21.15 26.6193 21.3265 27.0453 21.6406 27.3595C21.9548 27.6736 22.3808 27.8501 22.825 27.8501H36.2251C36.6693 27.8501 37.0953 27.6736 37.4095 27.3595C37.7236 27.0453 37.9001 26.6193 37.9001 26.1751C37.9001 25.7308 37.7236 25.3048 37.4095 24.9906C37.0953 24.6765 36.6693 24.5001 36.2251 24.5001H22.825ZM27.783 42.513L43.9636 26.3325C44.5456 25.7509 45.2365 25.2897 45.9967 24.9751C46.757 24.6605 47.5718 24.4987 48.3946 24.4991C49.2174 24.4994 50.0321 24.6617 50.7921 24.9769C51.5522 25.2921 52.2427 25.7538 52.8243 26.3359C53.4059 26.9179 53.8671 27.6088 54.1817 28.369C54.4963 29.1293 54.6581 29.9441 54.6578 30.7669C54.6574 31.5897 54.4951 32.4044 54.1799 33.1644C53.8648 33.9245 53.403 34.615 52.821 35.1966L36.6404 51.3738C35.6979 52.3168 34.5168 52.9861 33.2235 53.3101L28.2051 54.563C27.7062 54.6873 27.1835 54.6805 26.6879 54.5431C26.1923 54.4058 25.7407 54.1426 25.3769 53.7792C25.0131 53.4157 24.7495 52.9643 24.6117 52.4689C24.4739 51.9734 24.4666 51.4508 24.5905 50.9517L25.8468 45.9334C26.1681 44.6389 26.8377 43.4572 27.783 42.5164V42.513Z" fill="white" stroke="white"/>
</svg>
