<svg width="64" height="64" viewBox="0 0 64 64" fill="none" xmlns="http://www.w3.org/2000/svg">
<path d="M13.424 24.312C10.9019 24.9467 8.69832 26.4804 7.22732 28.6252C5.75632 30.7699 5.11913 33.378 5.43546 35.9594C5.7518 38.5409 6.99988 40.9179 8.94522 42.644C10.8906 44.3701 13.3993 45.3265 16 45.3333H18.6666M32 58.6667V34.6667V58.6667ZM32 58.6667L25.3333 53.3333L32 58.6667ZM32 58.6667L38.6666 53.3333L32 58.6667Z" stroke="white" stroke-width="6" stroke-linecap="round" stroke-linejoin="round"/>
<path d="M42.2134 19.0346C41.3019 15.4254 39.0522 12.2979 35.9204 10.2859C32.7885 8.27396 29.0087 7.52814 25.3474 8.19964C21.686 8.87114 18.4169 10.9097 16.2029 13.9021C13.9888 16.8945 12.9954 20.6169 13.424 24.3146C13.424 24.3146 13.832 26.6666 14.6667 27.9999" stroke="white" stroke-width="6" stroke-linecap="round" stroke-linejoin="round"/>
<path d="M45.3333 45.3332C47.2161 45.3319 49.0772 44.9319 50.7943 44.1595C52.5113 43.387 54.0453 42.2598 55.2952 40.8518C56.5452 39.4438 57.4828 37.787 58.0463 35.9906C58.6098 34.1941 58.7865 32.2987 58.5647 30.429C58.3429 28.5594 57.7276 26.7579 56.7594 25.1431C55.7912 23.5284 54.492 22.137 52.9473 21.0606C51.4026 19.9842 49.6474 19.2471 47.7973 18.8979C45.9472 18.5486 44.0441 18.5952 42.2133 19.0345L38.6666 19.9998" stroke="white" stroke-width="6" stroke-linecap="round" stroke-linejoin="round"/>
</svg>
