<svg width="27" height="27" viewBox="0 0 27 27" fill="none" xmlns="http://www.w3.org/2000/svg">
<path fill-rule="evenodd" clip-rule="evenodd" d="M4.21875 20.25C4.21875 20.0262 4.30765 19.8116 4.46588 19.6534C4.62411 19.4951 4.83872 19.4062 5.0625 19.4062H21.9375C22.1613 19.4062 22.3759 19.4951 22.5341 19.6534C22.6924 19.8116 22.7812 20.0262 22.7812 20.25C22.7812 20.4738 22.6924 20.6884 22.5341 20.8466C22.3759 21.0049 22.1613 21.0938 21.9375 21.0938H5.0625C4.83872 21.0938 4.62411 21.0049 4.46588 20.8466C4.30765 20.6884 4.21875 20.4738 4.21875 20.25ZM4.21875 13.5C4.21875 13.2762 4.30765 13.0616 4.46588 12.9034C4.62411 12.7451 4.83872 12.6562 5.0625 12.6562H21.9375C22.1613 12.6562 22.3759 12.7451 22.5341 12.9034C22.6924 13.0616 22.7812 13.2762 22.7812 13.5C22.7812 13.7238 22.6924 13.9384 22.5341 14.0966C22.3759 14.2549 22.1613 14.3438 21.9375 14.3438H5.0625C4.83872 14.3438 4.62411 14.2549 4.46588 14.0966C4.30765 13.9384 4.21875 13.7238 4.21875 13.5ZM4.21875 6.75C4.21875 6.52622 4.30765 6.31161 4.46588 6.15338C4.62411 5.99515 4.83872 5.90625 5.0625 5.90625H21.9375C22.1613 5.90625 22.3759 5.99515 22.5341 6.15338C22.6924 6.31161 22.7812 6.52622 22.7812 6.75C22.7812 6.97378 22.6924 7.18839 22.5341 7.34662C22.3759 7.50486 22.1613 7.59375 21.9375 7.59375H5.0625C4.83872 7.59375 4.62411 7.50486 4.46588 7.34662C4.30765 7.18839 4.21875 6.97378 4.21875 6.75Z" fill="white"/>
<path fill-rule="evenodd" clip-rule="evenodd" d="M4 20.3438C4 20.12 4.0889 19.9054 4.24713 19.7471C4.40536 19.5889 4.61997 19.5 4.84375 19.5H21.7188C21.9425 19.5 22.1571 19.5889 22.3154 19.7471C22.4736 19.9054 22.5625 20.12 22.5625 20.3438C22.5625 20.5675 22.4736 20.7821 22.3154 20.9404C22.1571 21.0986 21.9425 21.1875 21.7188 21.1875H4.84375C4.61997 21.1875 4.40536 21.0986 4.24713 20.9404C4.0889 20.7821 4 20.5675 4 20.3438ZM4 13.5938C4 13.37 4.0889 13.1554 4.24713 12.9971C4.40536 12.8389 4.61997 12.75 4.84375 12.75H21.7188C21.9425 12.75 22.1571 12.8389 22.3154 12.9971C22.4736 13.1554 22.5625 13.37 22.5625 13.5938C22.5625 13.8175 22.4736 14.0321 22.3154 14.1904C22.1571 14.3486 21.9425 14.4375 21.7188 14.4375H4.84375C4.61997 14.4375 4.40536 14.3486 4.24713 14.1904C4.0889 14.0321 4 13.8175 4 13.5938ZM4 6.84375C4 6.61997 4.0889 6.40536 4.24713 6.24713C4.40536 6.0889 4.61997 6 4.84375 6H21.7188C21.9425 6 22.1571 6.0889 22.3154 6.24713C22.4736 6.40536 22.5625 6.61997 22.5625 6.84375C22.5625 7.06753 22.4736 7.28214 22.3154 7.44037C22.1571 7.59861 21.9425 7.6875 21.7188 7.6875H4.84375C4.61997 7.6875 4.40536 7.59861 4.24713 7.44037C4.0889 7.28214 4 7.06753 4 6.84375Z" fill="#121212"/>
</svg>
