<svg width="76" height="79" viewBox="0 0 76 79" fill="none" xmlns="http://www.w3.org/2000/svg">
<g clip-path="url(#clip0_59_178)">
<path d="M47.3639 23.7177C43.9392 22.243 40.0838 23.3702 37.9818 26.2409C35.5236 25.4639 32.9507 25.9455 30.9897 27.3949L26.8331 19.7394C24.7476 15.8984 19.9594 14.4522 16.1594 16.5154C12.3594 18.5786 10.9645 23.382 13.05 27.223L22.1456 43.9751C19.6575 44.3286 17.3592 45.8882 16.1919 48.4021C14.3702 52.3251 16.0457 57.0072 19.9375 58.9082L40.0359 68.7268C42.3118 69.8383 44.9901 69.7854 47.2003 68.5854L65.7362 58.5212C68.9386 56.7824 70.5084 53.0359 69.5241 49.4918L65.6584 35.5714C65.4962 34.9882 65.2685 34.4252 64.9798 33.8932L60.238 25.1599C57.5937 20.2897 50.9156 19.5501 47.3639 23.7177ZM24.2085 49.797L29.1782 52.2248C30.8261 53.0297 32.5514 51.2396 31.6725 49.6208L18.0403 24.5135C16.6223 21.9018 20.4222 19.8333 21.8425 22.4491L31.7212 40.6433C32.2199 41.562 33.3691 41.9025 34.2878 41.4036L35.0007 41.0165C35.9195 40.5177 36.2598 39.3685 35.761 38.4499L33.7853 34.811C32.3673 32.1994 36.1672 30.1308 37.5875 32.7466L39.5632 36.3854C40.062 37.3041 41.2111 37.6446 42.1299 37.1457L42.843 36.7585C43.7617 36.2597 44.102 35.1105 43.6033 34.1919L42.4178 32.0086C40.9998 29.3969 44.7997 27.3283 46.22 29.9441L47.4054 32.1275C47.9042 33.0461 49.0534 33.3866 49.9721 32.8877L50.685 32.5007C51.6038 32.0018 51.9441 30.8526 51.4453 29.934C50.0272 27.3222 53.8272 25.2538 55.2475 27.8696L59.9892 36.6028C60.0732 36.7575 60.1397 36.9219 60.1867 37.091L64.0525 51.0116C64.3313 52.0155 63.9094 53.0515 63.0265 53.5308L44.4907 63.5949C43.8909 63.9206 43.1573 63.9315 42.5282 63.6243L22.4285 53.8066C19.7892 52.5173 21.5704 48.5085 24.2085 49.797ZM40.8928 56.933L35.4737 46.9521C34.9748 46.0334 35.2221 44.9348 36.026 44.4983L36.6498 44.1596C37.4537 43.7232 38.5097 44.1141 39.0086 45.0328L44.4277 55.0137C44.9266 55.9324 44.6792 57.031 43.8754 57.4674L43.2516 57.8061C42.4476 58.2427 41.3917 57.8517 40.8928 56.933ZM48.7349 52.6751L43.3157 42.6942C42.8169 41.7755 43.0642 40.6769 43.8681 40.2405L44.4919 39.9018C45.2957 39.4653 46.3517 39.8562 46.8506 40.7749L52.2698 50.7558C52.7686 51.6746 52.5213 52.7731 51.7174 53.2096L51.0936 53.5483C50.2897 53.9847 49.2337 53.5938 48.7349 52.6751ZM56.577 48.4171L51.1579 38.4363C50.659 37.5175 50.9063 36.419 51.7102 35.9825L52.334 35.6438C53.1379 35.2074 54.1939 35.5983 54.6927 36.517L60.1119 46.4979C60.6107 47.4166 60.3634 48.5152 59.5595 48.9516L58.9357 49.2903C58.1319 49.7268 57.0759 49.3359 56.577 48.4171Z" fill="white"/>
</g>
<defs>
<clipPath id="clip0_59_178">
<rect width="53" height="60.5714" fill="white" transform="translate(0 25.2893) rotate(-28.5)"/>
</clipPath>
</defs>
</svg>
